<?xml version="1.0" standalone="no"?>
<!DOCTYPE svg PUBLIC "-//W3C//DTD SVG 20010904//EN"
 "http://www.w3.org/TR/2001/REC-SVG-20010904/DTD/svg10.dtd">
<svg version="1.0" xmlns="http://www.w3.org/2000/svg"
 width="512.000000pt" height="512.000000pt" viewBox="0 0 512.000000 512.000000"
 preserveAspectRatio="xMidYMid meet">
<metadata>
Created by potrace 1.16, written by Peter Selinger 2001-2019
</metadata>
<g transform="translate(0.000000,512.000000) scale(0.100000,-0.100000)"
fill="#000000" stroke="none">
<path d="M612 3233 l3 -158 203 -3 202 -2 0 -735 0 -735 205 0 205 0 0 735 0
735 205 0 205 0 0 160 0 160 -615 0 -616 0 3 -157z"/>
<path d="M2116 3374 c-63 -20 -136 -92 -161 -159 -17 -44 -19 -87 -23 -348 -3
-280 -2 -303 17 -367 18 -57 29 -76 70 -112 76 -69 87 -71 443 -77 174 -3 318
-8 321 -11 18 -21 27 -59 27 -120 0 -69 -11 -107 -34 -122 -6 -4 -199 -8 -428
-8 l-418 0 0 -225 0 -226 528 3 527 3 67 32 c48 22 75 43 98 74 57 80 61 113
58 466 -3 357 -4 360 -80 433 -68 67 -104 73 -448 78 -259 3 -308 6 -322 19
-15 13 -18 33 -18 103 0 136 -40 124 430 130 l401 5 0 220 0 220 -503 2 c-422
1 -511 -1 -552 -13z"/>
<path d="M3302 3233 l3 -158 203 -3 202 -2 0 -735 0 -735 205 0 205 0 0 735 0
735 205 0 205 0 0 160 0 160 -615 0 -616 0 3 -157z"/>
</g>
</svg>
